<svg id="Camada_1" data-name="Camada 1" xmlns="http://www.w3.org/2000/svg" viewBox="0 0 796.74 185.67"><g id="Logo_Datelli" data-name="Logo | Datelli"><path id="D" d="M254.06,569.59c-4.21-2.61-10.82-7.24-10.82-10.66,0-5-1.58-166.94-1.58-166.94a25.52,25.52,0,0,0-9.5,0c-12.06,11.27-36.39,17.41-36.39,17.41v64.08s-6.33-4.74-21.36-4.74-59.34,9.49-59.34,57,46.28,50.64,63.29,50.64,26.9-7.91,26.9-7.91,6.6,7.91,26.9,7.91c11.34,0,17.91-1.48,21.5-2.79A2.21,2.21,0,0,0,254.06,569.59Zm-56.71-8s0,8.44-16.35,8.44-16.35-8.44-16.35-8.44v-74.9s0-8.19,16.35-8.19,16.35,8.19,16.35,8.19Z" transform="translate(-115.07 -391.1)"/><path id="A" d="M397.14,560.52V496.43c0-11.29-16.7-32.44-59.34-32.44s-54.59,23.15-54.59,31.65,7.33,15.82,19.78,15.82,18.2-11.16,18.2-15.82-4.44-3.85-4-10.29,10.91-11.08,20.57-11.08,21.36,5.54,21.36,15.83-22.94,20.57-22.94,20.57-58.55,20.57-58.55,38,7.91,27.69,41.14,27.69,41.94-11.87,41.94-11.87,15,11.87,29.27,11.87c10.08,0,22.16-2.26,22.16-4.75S397.14,566.76,397.14,560.52Zm-41.35-6.41c0,15.74-15.7,15.82-16,15.82,0,0-16.62,2.57-16.62-21.76,0-19.18,22.16-25.51,32.64-34.61Z" transform="translate(-115.07 -391.1)"/><path id="T" d="M502.36,572c0-2.18-17-6.33-17-13.06V477.17h17v-9.62l-17-.13V437.88h-9.3s-3.95,7.32-14.24,11.87a44.78,44.78,0,0,1-19.18,3.95v13.59l-15.83-.14v10h15.43v87.3s4.35,11.87,31.65,11.87C492.47,576.34,502.36,574.16,502.36,572Z" transform="translate(-115.07 -391.1)"/><path id="E" d="M632.12,534.41s1.78,32.44-45.49,32.44c-24.53,0-18.2-47.08-18.2-47.08h80.7s0-56.57-62.5-56.57-65.28,56.57-65.28,56.57,0,56.57,65.28,56.57S648,534.41,648,534.41ZM585,477.16c16.12,0,16.12,18.2,16.12,36.4H568.82C568.82,495.36,568.82,477.16,585,477.16Z" transform="translate(-115.07 -391.1)"/><path id="L" d="M738.54,571.49c0-1.91-15.83-5.21-15.83-12.13V391.1h-7.38a146.94,146.94,0,0,1-13.71,10c-7.78,5-22.16,8.44-22.16,8.44V562s2.18,14.77,29.54,14.77C728.52,576.77,738.54,573.4,738.54,571.49Z" transform="translate(-115.07 -391.1)"/><path id="L-2" data-name="L" d="M824,571.49c0-1.91-15.83-5.21-15.83-12.13V391.1h-7.38a146.94,146.94,0,0,1-13.71,10c-7.78,5-22.16,8.44-22.16,8.44V562s2.18,14.77,29.54,14.77C814,576.77,824,573.4,824,571.49Z" transform="translate(-115.07 -391.1)"/><g id="I"><path d="M911.81,571.49c0-1.91-15.82-5.21-15.82-12.13V467.93H888.6a146.94,146.94,0,0,1-13.71,10c-7.78,5-22.15,8.44-22.15,8.44V562s2.17,14.77,29.53,14.77C901.79,576.77,911.81,573.4,911.81,571.49Z" transform="translate(-115.07 -391.1)"/><ellipse cx="759.82" cy="46.78" rx="22.15" ry="15.82"/></g></g></svg>