<svg id="Camada_1" data-name="Camada 1" xmlns="http://www.w3.org/2000/svg" viewBox="0 0 220.5 198.61"><defs><style>.cls-1{fill:#fff;}</style></defs><rect width="220.5" height="198.61"/><path id="D" class="cls-1" d="M175,205.88c-4.21-2.61-10.82-7.24-10.82-10.66,0-5-1.58-166.94-1.58-166.94a25.52,25.52,0,0,0-9.5,0C141,39.55,116.68,45.69,116.68,45.69v64.08S110.35,105,95.32,105,36,114.52,36,162s46.28,50.64,63.29,50.64,26.9-7.91,26.9-7.91,6.6,7.91,26.9,7.91c11.34,0,17.91-1.48,21.5-2.79A2.21,2.21,0,0,0,175,205.88Zm-56.71-8s0,8.44-16.35,8.44-16.35-8.44-16.35-8.44V123s0-8.19,16.35-8.19S118.26,123,118.26,123Z" transform="translate(-29.5 -21)"/><path id="L" class="cls-1" d="M243.52,207.78c0-1.91-15.83-5.21-15.83-12.13V27.39h-7.38a148,148,0,0,1-13.72,10c-7.78,5-22.15,8.44-22.15,8.44V198.29s2.17,14.77,29.54,14.77C233.49,213.06,243.52,209.69,243.52,207.78Z" transform="translate(-29.5 -21)"/></svg>